<svg width="70" height="70" viewBox="0 0 70 70" fill="none" xmlns="http://www.w3.org/2000/svg">
<g clip-path="url(#clip0_1_344)">
<g filter="url(#filter0_d_1_344)">
<path d="M68.4614 33.4715C68.4576 14.9819 53.4656 -0.00373771 34.9754 6.99302e-07C16.4858 0.00373911 1.50017 14.9963 1.50391 33.4859C1.50711 48.0502 10.9252 60.9413 24.7995 65.3713C24.9319 65.413 25.0697 65.4343 25.2081 65.4338C25.4719 65.4333 25.7304 65.3628 25.9573 65.2287C26.2527 65.0541 26.4732 64.7764 26.5768 64.449L35.0315 37.6521C37.3429 37.6404 39.2068 35.7568 39.1945 33.4459C39.1827 31.1345 37.2997 29.2706 34.9883 29.2824C34.3666 29.285 33.753 29.4282 33.1944 29.7011L22.0251 18.5302C21.4707 17.9951 20.5879 18.0106 20.0528 18.5644C19.5305 19.1054 19.5305 19.962 20.0528 20.503L31.2162 31.6792C30.3596 33.4277 30.8493 35.5383 32.3895 36.7303L24.3338 62.2647C8.41354 56.4002 0.261689 38.7405 6.12618 22.8203C11.9907 6.90002 29.6503 -1.25183 45.5706 4.61266C61.4909 10.4771 69.6427 28.1374 63.7782 44.0571C60.913 51.8351 55.0261 58.1252 47.4548 61.4989L46.5842 57.3989C46.4251 56.6454 45.6844 56.1636 44.9308 56.3233C44.6931 56.3741 44.4726 56.4857 44.291 56.6475L35.8978 64.1409C35.322 64.653 35.2708 65.5347 35.7835 66.1105C35.9501 66.2974 36.1637 66.4362 36.403 66.5126L47.1188 69.9327C47.8521 70.1682 48.6377 69.765 48.8732 69.0312C48.948 68.7994 48.9603 68.5527 48.9101 68.3145L48.0545 64.2915C60.4452 59.0678 68.4902 46.918 68.4614 33.4715ZM34.9829 32.0766C35.753 32.0766 36.3779 32.7014 36.3779 33.4715C36.3779 34.2422 35.753 34.8665 34.9829 34.8665C34.2123 34.8665 33.588 34.2422 33.588 33.4715C33.588 32.7014 34.2123 32.0766 34.9829 32.0766ZM39.5774 64.5916L44.3551 60.3298L45.6737 66.543L39.5774 64.5916Z" fill="#212121"/>
<path d="M67.9614 33.4726V33.4716C67.9577 15.2582 53.1896 0.496318 34.9755 0.500001C16.7621 0.503683 2.00022 15.2724 2.00391 33.4858C2.00706 47.8322 11.284 60.5305 24.9505 64.8947C25.0347 64.921 25.1209 64.9341 25.2061 64.9338H25.207C25.3822 64.9335 25.5531 64.8867 25.7028 64.7983C25.892 64.6865 26.0336 64.5084 26.1001 64.2981L34.5547 37.5017L34.6644 37.154L35.029 37.1521C37.0642 37.1418 38.7053 35.4832 38.6945 33.4486V33.4484C38.6842 31.4132 37.0261 29.772 34.9908 29.7824L34.9904 29.7824C34.444 29.7847 33.9047 29.9105 33.4138 30.1503L33.0931 30.307L32.8408 30.0546L21.675 18.8872C21.319 18.5466 20.7547 18.5575 20.4124 18.9118C20.0781 19.2582 20.0773 19.8056 20.4099 20.153L31.57 31.3259L31.8223 31.5785L31.6652 31.8992C30.9129 33.4347 31.3431 35.2882 32.6956 36.3349L32.9713 36.5483L32.8664 36.8808L24.8106 62.4151L24.6529 62.9151L24.161 62.7339C7.9816 56.774 -0.302945 38.8268 5.657 22.6475C11.6169 6.46808 29.5641 -1.81646 45.7434 4.14348C61.9228 10.1034 70.2074 28.0511 64.2474 44.2299C61.3356 52.1345 55.3528 58.527 47.6583 61.9556L47.094 62.207L46.9657 61.6027L46.0951 57.5028L46.095 57.5022C45.9931 57.0193 45.5182 56.7102 45.0349 56.8124C44.8822 56.845 44.7405 56.9167 44.624 57.0205L67.9614 33.4726ZM67.9614 33.4726C67.9898 46.7176 60.0653 58.6854 47.8603 63.8307L47.4795 63.9913L47.5654 64.3955L48.4208 68.4176C48.4209 68.4178 48.4209 68.418 48.4209 68.4182C48.4532 68.5718 48.4451 68.7298 48.3974 68.8777L48.3971 68.8784C48.2461 69.3491 47.7422 69.6078 47.2717 69.4567L47.2709 69.4564L36.555 66.0363C36.4011 65.9872 36.264 65.898 36.1569 65.7779C35.8278 65.4084 35.8608 64.8429 36.2301 64.5144L36.2307 64.5138L44.6237 57.0208L67.9614 33.4726ZM39.2446 64.2185L38.5915 64.801L39.425 65.0678L45.5212 67.0192L46.3416 67.2818L46.1628 66.4392L44.8442 60.226L44.6653 59.3831L44.0223 59.9567L39.2446 64.2185ZM36.8779 33.4715C36.8779 32.4253 36.0292 31.5766 34.9829 31.5766C33.936 31.5766 33.088 32.4254 33.088 33.4715C33.088 34.5183 33.9361 35.3665 34.9829 35.3665C36.029 35.3665 36.8779 34.5184 36.8779 33.4715Z" stroke="black"/>
</g>
<path d="M33.5879 6.96729V9.7572C33.5879 10.5278 34.2122 11.1522 34.9828 11.1522C35.753 11.1522 36.3778 10.5278 36.3778 9.7572V6.96729C36.3778 6.19717 35.753 5.57233 34.9828 5.57233C34.2122 5.57233 33.5879 6.19717 33.5879 6.96729Z" fill="#2196F3"/>
<path d="M8.4787 32.0765C7.70805 32.0765 7.08374 32.7014 7.08374 33.4715C7.08374 34.2421 7.70805 34.8665 8.4787 34.8665H11.2686C12.0393 34.8665 12.6636 34.2421 12.6636 33.4715C12.6636 32.7014 12.0393 32.0765 11.2686 32.0765H8.4787Z" fill="#2196F3"/>
<path d="M61.4866 34.8665C62.2572 34.8665 62.8815 34.2421 62.8815 33.4715C62.8815 32.7014 62.2572 32.0765 61.4866 32.0765H58.6967C57.9265 32.0765 57.3017 32.7014 57.3017 33.4715C57.3017 34.2421 57.9265 34.8665 58.6967 34.8665H61.4866Z" fill="#2196F3"/>
</g>
<defs>
<filter id="filter0_d_1_344" x="-2.49609" y="0" width="74.9576" height="77.9999" filterUnits="userSpaceOnUse" color-interpolation-filters="sRGB">
<feFlood flood-opacity="0" result="BackgroundImageFix"/>
<feColorMatrix in="SourceAlpha" type="matrix" values="0 0 0 0 0 0 0 0 0 0 0 0 0 0 0 0 0 0 127 0" result="hardAlpha"/>
<feOffset dy="4"/>
<feGaussianBlur stdDeviation="2"/>
<feComposite in2="hardAlpha" operator="out"/>
<feColorMatrix type="matrix" values="0 0 0 0 0 0 0 0 0 0 0 0 0 0 0 0 0 0 0.25 0"/>
<feBlend mode="normal" in2="BackgroundImageFix" result="effect1_dropShadow_1_344"/>
<feBlend mode="normal" in="SourceGraphic" in2="effect1_dropShadow_1_344" result="shape"/>
</filter>
<clipPath id="clip0_1_344">
<rect width="70" height="70" fill="white"/>
</clipPath>
</defs>
</svg>
